<?xml version="1.0" encoding="utf-8"?>
<!-- Generator: Adobe Illustrator 24.1.3, SVG Export Plug-In . SVG Version: 6.00 Build 0)  -->
<svg version="1.1" id="Layer_1" xmlns="http://www.w3.org/2000/svg" xmlns:xlink="http://www.w3.org/1999/xlink" x="0px" y="0px"
	 viewBox="0 0 841.9 423" style="enable-background:new 0 0 841.9 423;" xml:space="preserve">
<style type="text/css">
	.st0{fill:#E20000;}
	.st1{fill:#C40001;}
	.st2{fill:#DB1616;}
	.st3{fill:#5E0005;}
	.st4{fill:#020000;}
	.st5{fill:#71061C;}
	.st6{fill:#FFFFFF;}
	.st7{fill:#180002;}
	.st8{fill:#1A0103;}
	.st9{fill:#2B0104;}
	.st10{fill:#250104;}
	.st11{fill:#420405;}
	.st12{fill:#340205;}
	.st13{fill:#73061D;}
	.st14{fill:#72061D;}
	.st15{fill:#D70000;}
	.st16{fill:#D80000;}
	.st17{fill:#E40101;}
	.st18{fill:#750303;}
	.st19{fill:#AE0000;}
	.st20{fill:#040001;}
	.st21{fill:#030001;}
	.st22{fill:#060002;}
	.st23{fill:#6C0A1D;}
</style>
<path class="st0" d="M396.9,316.7c-5.8,0.2-11.1,0.3-16.9,0.4c-6.1,0.9-11.8,0.1-17.9,0.6c-41.2,1.7-81.9,4.7-122.5,9.5
	c8-3.5,16.4-5.5,24.8-7.2c8.7-1.8,17.5-3.7,26.3-4.8c4.9-0.6,4.6-2.1,2.2-5.3c-11.2-15.4-17.1-33.2-21.4-51.5
	c-0.2-0.8,0-1.7-0.1-2.9c-1.6-3.7-1.4-7.2-1.6-11c-1.7-20.2,0.1-39.6,6.6-58.5c6.7-19.4,16.8-36.7,31-51.7
	c10.9-11.4,22.8-21.3,36.5-29c6.8-3.8,14.4-6.5,21.8-9.2c2.9-1.1,4.6-2.3,5.5-5.3c1.1-4,2.3-8.1,4-11.9c2.5-5.6,7.3-8.8,12.8-11.1
	c7.7-3.2,15.3-5.9,23.8-6c10.9-0.1,20.6,3.9,30.4,7.5c5.5,2,8.8,7.1,10.1,12.4c2.5,10.1,7.1,17.3,18,20.3c7.5,2.1,14.1,7,21.1,11.4
	c0.4,3.6-2.1,4.5-4.7,5.8c-5.6-0.9-9.2-4.9-13.9-6.9c-2-0.8-3.7-2.1-6.6-2.9c6.1,11.4,10,23,10.7,35.8c0.1,4.6-0.2,8.8,0.4,13.3
	c2.1,6.2,5.1,11.6,5.7,17.9c0.2,2.8,2.7,3.6,4.8,4.6c13.5,6.8,27.3,13.2,40.2,21.1c7.8,4.8,12.7,9.8,16.9,17.1c-1-8.3-2.4-17-5-25.6
	c-8.4-27.8-23.9-50.6-46.7-68.6c-1.4-1.1-3.1-2-4.1-4c0.2-3.5,1.9-5.3,5.4-5.4c7.7,5.7,14.7,11.8,21,18.5
	c13.3,14.1,23.4,30.3,30.1,48.4c4.9,13.3,8.2,27,8.2,41.8c0.9,5.2,0.3,9.9,0.2,15.1c-1,27.9-10.8,52.1-26.4,74.9
	c17.2,3.2,34.3,6.3,51,11.5c-4.1,2.1-8.1,0-12.1-0.2c-8.6-0.4-17.2-2-25.8-2.8c-15.5-1.4-31-2.7-46.5-4c-0.3,0-0.7,0-1,0
	c-10.6,0.7-21.1-1.5-32.2-1.1c-5.8-0.9-11.2-0.2-17-0.6c-5.8-0.2-11.1-0.2-16.9-0.4C416.7,316.1,407,316.7,396.9,316.7z"/>
<path class="st1" d="M396.9,316.9c4.8-1.9,10.2-0.6,15.6-0.9c4.4-0.2,8.8,0.2,13.6,0.5C416.7,316.9,407.1,316.9,396.9,316.9z"/>
<path class="st2" d="M486.5,119.2c1.5-1.8,3.1-3.3,4.9-5c1.1,0.2,2,0.7,3.1,1.4c-2.5,0.7-4,2.4-5,5.2
	C488,121.5,487.2,120.6,486.5,119.2z"/>
<path class="st3" d="M362,317.9c5.1-1.7,10.9-0.6,17-0.9C373.9,319.1,368.1,317.5,362,317.9z"/>
<path class="st3" d="M443.6,317.5c5.2-0.3,10.7-0.2,16.4,0.1C454.8,317.8,449.3,317.9,443.6,317.5z"/>
<path class="st3" d="M553.9,239.8c-0.4-4.5-0.4-9.2-0.4-14.4C555.5,229.8,554.1,234.7,553.9,239.8z"/>
<path class="st3" d="M269.5,244.6c1.5,2.8,1,6.4,1.8,10.1C267.6,252.3,270.3,248.3,269.5,244.6z"/>
<path class="st4" d="M543.9,256.8c-3,20.1-11.6,37.6-23.1,53.9c-0.9,1.3-1.8,2-3.7,1.8c-24.8-3.2-49.7-5-74.6-6
	c-20.8-0.8-41.6-0.9-62.4,0.1c-13,0.6-25.9,1.4-38.9,2.4c-10.8,0.8-21.6,1.6-32.2,3.4c-4.7,0.8-7.1-1.3-9-4.2
	c-9.4-14.5-16.6-30-20.3-46.9c-1-4.6,1.7-9,2.7-13.9c0.2-0.5,0.4-0.6,0.8-0.6c0.3,0.1,0.6,0.4,0.6,0.6c0.6,0.7,0.3,0,0.5-0.3
	c0.3-1.3,0.7-2.2,1.2-3.1c5.7-10.9,14.7-13,24.8-5.9c2.6,1.8,4.6,4.2,7.3,6.9c1.1-5.7-0.9-9.3-4.6-12.3c-3.5-2.9-7.7-4.6-12-6.1
	c-1.4-0.5-3.2-1-2.9-2.9c0.3-1.8,2.2-2,3.6-1.9c4.4,0.4,6.8-2.1,9.7-5c7.5-7.5,17.1-12,26.6-16.6c5.8-2.8,11.9-5.3,18-7.5
	c1.4-0.5,3-1.1,4.2,0.2c1.3,1.3,0.5,2.8-0.1,4.2c-3.6,8.9-4.9,18.3-6.4,27.7c-0.2,1.5-1.1,3.7,1.1,4.3c2.3,0.7,3.2-1.3,3.9-3
	c1.5-3.5,2.9-7.1,4.8-10.5c0.9-1.6,1.8-3.2,3.3-4.3c2.9-2.1,5.1-1.3,5.6,2.3c0.5,4,0.1,8,0.2,12c0.1,1.3-0.1,3,1.6,3.3
	c1.7,0.2,2-1.5,2.4-2.7c0.4-1.3,0.6-2.6,1.1-3.8c0.6-1.6,1.1-3.5,3.1-3.5c2,0,2.4,1.9,2.9,3.5c0.4,1.3,0.7,2.6,0.8,3.9
	c0.2,2.2,1.4,3.3,3.6,3.2c2,0,3.6-0.5,4.4-2.5c1.7-4,1-8-2.5-10.8c-5.4-4.5-10.4-9.4-15.8-13.8c-6-4.9-10.7-10.9-15.2-17.1
	c-3.4-4.6-4.8-9.8-3.6-15.9c11-18.9,23.8-27.3,49.9-33c-8.7-0.4-16.7,1.5-29.1,6.9c-2.1,0.9-4.2,2-6.9,2.2c-0.6-0.2-0.8-0.3-1.3-0.7
	c-0.4-1.2-0.3-2,0.2-2.7c10.5-17,24.6-28.6,45.6-28.3c14.2,0.2,26.1,6.2,35.3,17.1c3.3,3.9,7,7.6,8.8,13c-0.1,0.6-0.2,0.9-0.6,1.3
	c-6.8-0.1-12.2-3.9-18.2-5.7c-6.6-2-13.1-3.9-19.8-3.2c-0.9,0-0.4,1.1-0.4,0.5c0-0.1,0.1-0.1,0.2-0.1c5.4-0.1,10.4,1.8,15.4,3.5
	c14.1,4.9,25.8,12.9,33.7,26c3.1,5.1,3.2,10.1,0.6,15.2c-2.3,4.5-5.1,8.6-8.7,12.1c-7.6,7.7-15,15.7-23.7,22.2
	c-3.7,2.7-4.1,6.2-3.5,10.2c0.4,2.6,1.9,3.7,4.5,3.7c2.5,0,3.5-1.2,3.9-3.5c0.5-2.7,0.2-6.9,3.5-6.9c3.8-0.1,3.3,4.2,4,7
	c0.3,1.3,0.6,2.9,2.2,2.9c2.2,0,2-1.8,2.1-3.3c0.2-3.5-0.1-7,0.1-10.5c0.1-1.9-0.2-4.3,2.4-4.9c2.3-0.6,3.8,1.1,5,2.7
	c2.5,3.4,4,7.3,5.6,11.1c0.9,2,1.3,5.5,4.1,4.7c3.2-0.9,1.7-4.2,1.3-6.5c-1.4-8.5-2.6-17.1-5.8-25.3c-0.5-1.4-1.3-3-0.1-4.2
	c1.2-1.3,2.8-0.6,4.2-0.1c14.2,5.7,28.5,11.4,40.9,20.8c1.3,1,2.8,1.9,3.8,3.3c2.7,3.7,6.2,5.3,10.8,4.9c1.4-0.1,3.5-0.1,3.9,1.5
	c0.5,2.1-1.7,2.6-3.2,3.1c-4.5,1.3-8.8,3-12.7,5.7c-4.2,2.9-5.9,6.9-5.3,13.1c6.3-6.9,12.5-12.5,21.8-10.8
	c6.3,1.2,8.9,6.6,11.7,11.9c0.3,0.6,0.4,0.8,0.6,1.4c0.3,1.1,0.4,1.8,0.6,2.9C543.3,252.8,543.3,254.7,543.9,256.8z"/>
<path class="st5" d="M457.1,145c-17.7-35.6-58.4-39.4-80.4-11.9c-2.9,3.6-6,7.1-8.2,11.6c9.3-2.6,18.1-7.2,27.8-9.1
	c4.2-0.8,8.4-1.4,13.9,1.2c-22.5,4.3-41.5,12-53,32.3c-0.5,0.1-0.7,0-1.1-0.4c-0.4-1.3,0-2.2,0.3-3.4c0.2-0.3,0.2-0.3,0.2-0.3
	c0.5-0.4,0.5-1,0.8-1.8c0.2-0.2,0.2-0.2,0.1-0.2c0.3-0.3,0.6-0.6,0.9-1.2c0.1-0.3,0.1-0.3,0-0.3c1.3-4.9-0.4-9.8,0.1-14.8
	c1-9.3,3.4-18.2,6.7-27.4c0.2-0.4,0.2-0.3,0.2-0.3c0.5-0.4,0.5-1,0.9-1.8c0.2-0.3,0.2-0.2,0.1-0.2c0.5-0.4,0.5-1,0.9-1.8
	c0.2-0.3,0.2-0.2,0.1-0.2c0.2-0.2,0.5-0.4,0.9-0.9c0.2-0.2,0.2-0.1,0.1-0.2c2-3.7,3.9-7.5,5.8-11.7c0.2-0.3,0.2-0.3,0.2-0.3
	c0.3-0.3,0.6-0.6,0.9-1.2c0.1-0.3,0.1-0.2,0.1-0.3c0.1-0.4,0.4-0.7,0.8-1.3c0.2-0.2,0.2-0.2,0.2-0.2c0.8-0.7,0.4-1.7,0.8-2.8
	c0.2-0.3,0.2-0.2,0.2-0.2c2.9-4.8,2.9-10.6,5.8-15.7c0.2-0.3,0.2-0.3,0.2-0.3c0.2-0.2,0.5-0.4,0.9-0.8c4.9-6,12.1-6.8,18.5-9.1
	c4.1-1.5,8.5-1.2,13.3-1c1.6,0.7,2.9,0.2,4.4,0.7c0.4,0.1,0.5,0,0.6,0c0.8,0.8,1.8,0.6,3,0.9c0.3,0.2,0.2,0.2,0.2,0.2
	c0.7,0.8,1.6,0.5,2.8,0.8c0.3,0.2,0.2,0.2,0.2,0.2c0.7,0.9,1.9,0.3,3.2,0.9c0.4,0.1,0.4,0,0.5,0c0.9,0.8,2,0.6,3.3,1
	c1.7,1.1,3.1,2,4.7,3c0.5,0.4,0.8,0.6,1.2,1c0.2,0.2,0.1,0.2,0.2,0.1c3.2,2.3,4.5,5.8,5.4,9.3c2.2,8.3,6.2,15.8,10.4,23.1
	c5,8.8,8.8,17.9,10.3,28.3c1.7,5.6,1.7,10.9,1.2,16.2c-0.4,4,0.5,7.4,2.3,10.9c2.5,5,3.8,10.3,1.6,16.2c0.9,2.2,2.7,2.3,4.6,2.8
	c0.3,0.2,0.2,0.2,0.2,0.2c0.4,0.5,1,0.5,1.8,0.9c0.3,0.2,0.2,0.2,0.2,0.1c0.4,0.5,1,0.5,1.8,0.9c0.3,0.2,0.2,0.2,0.2,0.1
	c0.4,0.5,1,0.5,1.8,0.9c0.2,0.2,0.2,0.2,0.2,0.2c0.4,0.5,1,0.5,1.8,0.8c0.2,0.2,0.2,0.2,0.2,0.2c8.4,4.3,16.8,8.6,25.7,12.8
	c0.3,0.2,0.3,0.2,0.3,0.2c5.1,3.7,11.1,5.9,16.2,10.2c1,0.9,1.8,1.2,3,1.7c0.5,0.1,0.7,0.1,0.8,0.4c6.7,8.4,9.6,18.1,11.5,28.3
	c0.3,1.7,0.7,3.2-0.2,5.2c-1.9-0.8-2.2-2.7-3.1-4.3c-5.8-10.5-14.1-9.9-23-3.9c-3,2-5.3,4.9-8.1,9.2c-1.6-5.1-1.7-8.8,0.3-12.7
	c2-4,5.8-5.9,9.5-7.8c3.6-1.8,7.6-2.8,11.5-4.9c-8.6,2.2-12.9-3.6-18.3-8.1c-13-10.6-28.7-16.2-45.4-23c4.7,10.3,6.1,20.1,7.8,29.9
	c0.3,1.6,0.5,3.3,0.5,4.9c0,1.5,0.8,3.6-1.8,3.9c-2.2,0.2-4.2,0.4-5.2-2.5c-1.4-3.9-3.2-7.7-4.9-11.5c-0.5-1.2-1.2-2.4-2-3.4
	c-1-1.2-2-3.1-4-2.3c-1.7,0.7-1.1,2.6-1.1,4c-0.1,4,0,8,0,12c0,2,0,3.7-2.7,3.7c-2.3,0-4-0.4-4.2-3.1c-0.2-3-0.3-8-2.3-7.8
	c-3,0.3-2.5,5-2.7,8c-0.2,2.1-1,3.3-3,2.9c-2.5-0.5-5.7,1.8-7.3-2.2c-2.2-5.7-0.7-10.3,3.9-14.3c11.3-9.8,23-19.3,30.9-32.4
	c3.2-5.3,3.3-10.2-0.2-15.8c-10.4-16.6-26.4-24.1-44.6-28.3c-1.6-0.4-3.2-0.8-6.1-1.5c5.2-2.5,9.3-1.9,13.4-1.1
	C438.9,137.4,447.7,141.6,457.1,145z"/>
<path class="st6" d="M350.7,159.7c-2.9,5.4-5.3,10.6-5.2,16.4c0.1,3.1-1.9,3.8-3.9,4.9c-13.8,7.1-28,13.5-41.3,21.5
	c-12.1,7.3-19.7,17.4-21.9,31.4c-0.1,0.8,0.1,1.7-0.7,2.3c-0.3,0.2-0.6,0.3-0.9,0.4c-2.4-48.9,25.1-107.2,87.9-131.8
	c-8,12.4-12.4,25.3-13.3,39.8C350.4,149.7,351.2,154.5,350.7,159.7z"/>
<path class="st6" d="M486.1,118.8c1.1,0.7,1.9,1.4,3,2.2c35.1,25.4,53.3,60,57.5,103.9c-2.3-3.7-3.8-6.2-5.3-8.6
	c-7-10.8-18.4-15.6-29.1-21.3c-9.1-4.9-18.4-9.5-27.7-14c-2.2-1.1-3.1-2.1-3.1-4.7c0-5.6-2.8-10.5-5-15.9c-0.8-5.2-0.2-10-0.6-15.2
	c-1.1-13.8-5.1-26.2-13.1-38.8C471.6,110,478.7,114.3,486.1,118.8z"/>
<path class="st5" d="M356.7,169.2c-1.5,6.9,1.2,12.4,5,17.7c7.7,10.7,18,18.6,27.8,27c5.7,5,7.1,8.3,4.1,15.1
	c-1.6,3.7-4.9,1.6-7.4,2c-2.2,0.4-2.8-1.2-2.8-3.1c0-3-0.8-5.8-2.1-8.9c-3,2.7-2.9,6.1-3.6,9.1c-0.6,2.6-1.9,3.2-4.2,2.9
	c-2.6-0.2-2.1-2.2-2.1-3.7c0-4.2,0.1-8.3,0-12.5c0-1.2,0.5-2.9-1.1-3.5c-1.8-0.7-2.8,0.8-3.7,2c-3.4,4.4-5.2,9.7-7.1,14.8
	c-0.9,2.3-2.1,3.1-4.4,3c-2.3,0-3.5-0.1-3-3.3c1.7-11.7,3.3-23.3,8.4-34.9c-7.3,1.7-13.4,4.8-19.5,7.5c-9.1,4-18,8.6-26,14.8
	c-0.4,0.3-0.9,0.5-1.2,0.9c-3.6,5.2-8.1,8.6-15.2,7.3c2.1,2.4,4.9,2.7,7.3,3.6c9.2,3.4,14,9.5,13.4,17.1c-0.1,1.1,0.2,2.6-1,3.1
	c-1.5,0.7-1.7-1.1-2.4-1.9c-3.1-3.7-6.4-7.1-11.2-8.8c-7.8-2.7-12.1-1.4-16.6,5.4c-1.2,1.8-2,3.8-3.3,6c-0.5,0.4-0.7,0.5-1.1,0.3
	c-0.2-0.3-0.2-0.8-0.2-1c0.8-7.9,3.8-15.1,5.7-22.9c0.2-0.3,0.2-0.3,0.2-0.3c0.5-0.4,0.5-1,0.9-1.8c0.2-0.2,0.2-0.2,0.1-0.2
	c0.8-0.6,1.3-1.6,1.8-2.8c0.2-0.3,0.2-0.2,0.2-0.2c0.2-0.2,0.5-0.4,0.9-0.9c0.2-0.2,0.2-0.1,0.1-0.1c0.2-0.2,0.5-0.4,0.9-0.9
	c0.2-0.2,0.2-0.1,0.2-0.1c0.3-0.3,0.6-0.6,0.9-1.2c0.5-0.7,1-1.2,1.6-1.7c0.6-0.2,0.9-0.4,1.3-0.9c0.2-0.2,0.2-0.2,0.2-0.2
	c0.2-0.2,0.5-0.4,0.9-0.9c0.2-0.2,0.2-0.1,0.1-0.1c0.5-0.4,1-0.5,1.8-0.8c0.2-0.2,0.2-0.1,0.2-0.2c0.2-0.2,0.5-0.4,0.9-0.9
	c0.2-0.2,0.2-0.1,0.1-0.1c0.4-0.3,1-0.5,1.7-0.7c0.9-0.8,1.7-1.3,2.6-2.1c0.9-0.4,1.5-0.6,2.4-1c0.2-0.2,0.3-0.2,0.2-0.2
	c0.3-0.2,0.5-0.4,0.9-0.9c0.2-0.2,0.2-0.1,0.1-0.1c0.5-0.4,1.1-0.5,1.8-0.9c0.2-0.2,0.2-0.1,0.2-0.1c0.5-0.4,1.1-0.5,1.8-0.8
	c0.2-0.2,0.2-0.1,0.2-0.2c0.5-0.4,1.1-0.5,1.9-0.8c0.6-0.5,0.9-0.7,1.5-1.1c0.8-0.3,1.5-0.5,2.4-0.9c0.2-0.2,0.3-0.2,0.2-0.2
	c0.3-0.2,0.5-0.4,0.9-0.9c0.2-0.2,0.2-0.1,0.1-0.1c0.5-0.4,1.1-0.5,1.8-0.9c0.2-0.2,0.2-0.1,0.2-0.2c0.5-0.4,1.1-0.4,1.8-0.8
	c0.2-0.2,0.2-0.1,0.2-0.2c0.5-0.4,1.1-0.4,1.8-0.8c0.2-0.2,0.2-0.1,0.2-0.1c0.5-0.4,1.1-0.4,1.8-0.9c0.2-0.2,0.2-0.1,0.2-0.1
	c0.5-0.4,1.1-0.5,1.8-0.9c0.2-0.2,0.2-0.1,0.2-0.1c0.5-0.4,1.1-0.5,1.8-0.9c0.2-0.2,0.2-0.1,0.2-0.1c0.5-0.4,1.1-0.5,1.8-0.9
	c0.2-0.2,0.2-0.1,0.2-0.1c0.5-0.4,1.1-0.5,1.8-0.9c0.2-0.2,0.2-0.1,0.2-0.1c0.5-0.4,1.1-0.4,1.8-0.9c0.2-0.2,0.2-0.1,0.2-0.1
	c0.5-0.4,1.2-0.5,2-0.9c0.2-0.2,0.4-0.3,0.5-0.2c0.8-0.2,1.5-0.3,2.4-0.9c2-1.1,3.8-1.9,5.8-2.9c0.8-0.5,1.4-0.6,2.2-1
	c0.2-0.2,0.2-0.1,0.2-0.2c0.5-0.4,1.1-0.4,1.8-0.8c0.2-0.2,0.2-0.1,0.2-0.2c0.6-0.4,0.7-0.9,0.2-1.7c-0.2-0.2-0.1-0.2-0.1-0.2
	c-0.9-4.1-1.6-8.2,1.5-12C356.3,168.9,356.6,169.1,356.7,169.2z"/>
<path class="st7" d="M465.8,139.2c-2.1-11.5-6.4-21.8-12.5-31.5c-5.7-9.1-7.7-19.8-12.8-29.5c3.7-0.1,4.9,3.1,5.5,5.7
	c2.7,11.5,9,21.3,14.2,31.7c3.6,7.2,6.7,14.4,7.2,22.9C467,139.3,466.6,139.5,465.8,139.2z"/>
<path class="st8" d="M465.7,139.4c0.3-0.4,0.7-0.4,1.4-0.4c2.2,5.7,2.9,11.5,1.9,17.5c-0.5,2.8,0.1,5.1,1.5,7.5
	c3.2,5.7,5.5,11.7,2.2,18.6c-0.2,0.6-0.4,0.7-0.9,0.7c-1.3-0.4-1.9-0.8-1.3-1.8c2.3-4.4,1.7-9.2-0.4-13c-3.6-6.4-3.5-13-3.4-19.8
	C466.5,145.7,467,142.7,465.7,139.4z"/>
<path class="st7" d="M541.5,248c-1.4-10.3-3.1-20.6-9.6-29.2c-0.8-1.1-1.6-2.1-1.4-4c3.1,2.1,5.7,4.9,7.1,8.5
	c4.3,10.6,7.4,21.6,6.7,33.5c-2.5-0.8-1.6-3.4-2.7-5.5c0.7-1.1,0.4-2,0.1-3.1C541.4,248,541.5,248,541.5,248z"/>
<path class="st9" d="M365.2,119.2c0.1,5.5-2.6,10.6-4,16c-1.7,6.7-1.7,13.4-1.8,20.2c0,1.8,0.4,3.7-0.8,5.7c-0.6-2.6-0.8-5.4-1-8.8
	c0.2-0.8,0.3-1.2,0.2-2C358.2,139.4,360.1,129,365.2,119.2z"/>
<path class="st9" d="M510.4,201.6c-3.7,0.6-6.4-2-9.4-3.5c-5.5-2.8-11.3-4.9-16.4-8.9C493.6,192,501.8,196.8,510.4,201.6z"/>
<path class="st10" d="M289.1,224.1c-0.4,7.5-3.3,14.7-5.4,22.5c-0.2,0.3-0.6,0.4-0.9,0.4C284.1,239.3,285.7,231.6,289.1,224.1z"/>
<path class="st9" d="M526.7,212.9c-5.6-3.4-10.9-6.8-16.2-10.6c6.2,1.7,11.4,5.4,16.9,9.3C527.5,212.3,527.3,212.6,526.7,212.9z"/>
<path class="st9" d="M383.1,80.1c-1.1,5.2-2.2,10.7-5.4,15.8C378.8,90.6,379.6,85.1,383.1,80.1z"/>
<path class="st10" d="M356.4,168.5c-2.6,3.8-1.7,7.8-1.9,12.1c-3.1-5.1-1.1-10.2,1.6-15.5C356.4,166,356.4,167.1,356.4,168.5z"/>
<path class="st9" d="M374.1,102.1c0,4.5-2.7,8-5.4,11.8C369,109.5,371.8,106,374.1,102.1z"/>
<path class="st3" d="M475.5,145.4c2,4.2,0.4,9.1,0.9,14.3C474.4,155.5,476,150.6,475.5,145.4z"/>
<path class="st3" d="M350.9,159.9c-0.3-4.6-0.3-9.6,0.1-14.7C351.3,149.8,351.2,154.7,350.9,159.9z"/>
<path class="st9" d="M471.5,183.5c0-0.3,0.2-0.4,0.8-0.4c1.5,0.5,2.7,1,4.1,1.7C474.8,185.1,473,185.2,471.5,183.5z"/>
<path class="st7" d="M526.7,213.3c-0.1-0.6,0.2-0.8,0.6-1.2c0.9,0.4,1.6,0.9,2.4,1.7C528.9,214.3,527.9,214.2,526.7,213.3z"/>
<path class="st10" d="M292.1,219.1c0.5,1.1,0.4,2.3-1.4,2.9C290.4,220.8,291.1,220,292.1,219.1z"/>
<path class="st11" d="M420.6,69.7c-1,0.2-2.3,0.1-3.8-0.3C417.8,69.2,419.1,69.3,420.6,69.7z"/>
<path class="st9" d="M377.1,96.1c0.1,0.7,0,1.6-0.5,2.7C376.5,98.1,376.7,97.2,377.1,96.1z"/>
<path class="st11" d="M434.4,73.7c-0.7,0.1-1.7-0.1-3-0.6C432.1,73.1,433.1,73.3,434.4,73.7z"/>
<path class="st11" d="M354.4,181.3c0.5,0.1,1.1,0.3,1.4,0.8c0.3,0.6-0.4,0.7-1.1,0.8C354.4,182.5,354.4,182.1,354.4,181.3z"/>
<path class="st11" d="M430.7,72.7c-0.8,0.2-1.8,0-3-0.4C428.5,71.6,429.5,71.9,430.7,72.7z"/>
<path class="st11" d="M427.3,71.6c-0.7,0.2-1.6,0-2.7-0.4C425.4,71.1,426.3,71.2,427.3,71.6z"/>
<path class="st11" d="M424.3,70.7c-0.7,0.1-1.6,0-2.8-0.5C422.2,70.1,423.2,70.2,424.3,70.7z"/>
<path class="st12" d="M314.1,202.9c-0.2,0.3-0.6,0.7-1.4,1C312.9,203.6,313.3,203.3,314.1,202.9z"/>
<path class="st10" d="M290.2,222.1c0.1,0.4,0,1.1-0.5,1.8C289.6,223.4,289.7,222.8,290.2,222.1z"/>
<path class="st12" d="M301.1,210.9c-0.2,0.4-0.6,0.8-1.4,1.1C299.9,211.6,300.3,211.2,301.1,210.9z"/>
<path class="st12" d="M304.1,209.1c-0.2,0.3-0.6,0.6-1.4,0.9C302.8,209.7,303.3,209.3,304.1,209.1z"/>
<path class="st12" d="M309.1,205.9c0,0.8-0.6,1.1-1.7,1.1C307.6,206.6,308.1,206.2,309.1,205.9z"/>
<path class="st12" d="M312.1,204c-0.2,0.3-0.6,0.7-1.4,1C310.9,204.6,311.4,204.3,312.1,204z"/>
<path class="st12" d="M316.2,201.9c-0.2,0.4-0.7,0.7-1.5,1.1C314.9,202.6,315.4,202.3,316.2,201.9z"/>
<path class="st9" d="M367.2,115.1c0.1,0.4,0,1-0.5,1.8C366.6,116.4,366.7,115.9,367.2,115.1z"/>
<path class="st9" d="M366.2,117.1c0.1,0.4,0,1-0.5,1.8C365.6,118.4,365.7,117.9,366.2,117.1z"/>
<path class="st11" d="M320.1,199.9c0,0.8-0.6,1.1-1.7,1.1C318.6,200.6,319.1,200.2,320.1,199.9z"/>
<path class="st11" d="M339.1,190c-0.2,0.3-0.6,0.7-1.4,1C337.9,190.6,338.4,190.3,339.1,190z"/>
<path class="st10" d="M357.2,163.1c0.1,0.4,0,1.1-0.5,1.8C356.6,164.4,356.7,163.8,357.2,163.1z"/>
<path class="st12" d="M357.6,150.4c0.7,0.1,0.9,0.6,0.2,1.4C357.6,151.5,357.6,151.1,357.6,150.4z"/>
<path class="st11" d="M354.1,182.9c-0.2,0.3-0.6,0.7-1.4,1C352.9,183.6,353.3,183.3,354.1,182.9z"/>
<path class="st11" d="M352.1,183.9c-0.2,0.3-0.6,0.7-1.4,1C350.9,184.6,351.3,184.3,352.1,183.9z"/>
<path class="st9" d="M478.3,185.7c-0.4,0.1-1-0.1-1.8-0.5C477,185.1,477.6,185.3,478.3,185.7z"/>
<path class="st9" d="M480.3,186.7c-0.4,0.1-1.1,0-1.8-0.5C479,186.1,479.6,186.3,480.3,186.7z"/>
<path class="st9" d="M482.4,187.7c-0.5,0.1-1.1,0-1.8-0.5C481,187.1,481.6,187.3,482.4,187.7z"/>
<path class="st11" d="M344.1,187.8c0.1,0.7-0.5,1.1-1.8,1.2C342.5,188.6,343.1,188.2,344.1,187.8z"/>
<path class="st9" d="M484.4,188.7c-0.5,0.1-1.1,0-1.8-0.4C483.1,188.1,483.7,188.2,484.4,188.7z"/>
<path class="st11" d="M341.3,188.9c-0.2,0.3-0.7,0.7-1.6,1C339.9,189.6,340.4,189.3,341.3,188.9z"/>
<path class="st11" d="M337.1,191c-0.2,0.3-0.6,0.7-1.4,1C335.9,191.6,336.3,191.3,337.1,191z"/>
<path class="st11" d="M323.1,197.9c-0.2,0.3-0.6,0.7-1.4,1C321.9,198.6,322.3,198.3,323.1,197.9z"/>
<path class="st11" d="M325.1,196.9c-0.2,0.3-0.6,0.7-1.4,1C323.9,197.6,324.3,197.3,325.1,196.9z"/>
<path class="st11" d="M327.1,195.9c-0.2,0.3-0.6,0.7-1.4,1C325.9,196.6,326.3,196.3,327.1,195.9z"/>
<path class="st11" d="M333.1,193c-0.2,0.3-0.7,0.7-1.5,1C331.9,193.6,332.3,193.3,333.1,193z"/>
<path class="st11" d="M331.1,194c-0.2,0.3-0.7,0.7-1.5,1C329.9,194.6,330.3,194.3,331.1,194z"/>
<path class="st11" d="M329.1,195c-0.2,0.3-0.7,0.7-1.4,1C327.9,195.6,328.3,195.3,329.1,195z"/>
<path class="st11" d="M335.1,192c-0.2,0.3-0.7,0.7-1.4,1C333.9,192.6,334.3,192.3,335.1,192z"/>
<path class="st12" d="M310.2,205c0.1,0.2-0.1,0.5-0.5,0.9C309.6,205.7,309.7,205.4,310.2,205z"/>
<path class="st7" d="M440.5,77.6c-0.3,0.2-0.7,0-1.1-0.4C439.8,77.1,440.2,77.2,440.5,77.6z"/>
<path class="st9" d="M368.1,113.9c0.1,0.3,0,0.6-0.5,1C367.5,114.6,367.7,114.3,368.1,113.9z"/>
<path class="st10" d="M358.1,161.6c0.1,0.3,0,0.7-0.4,1.2C357.5,162.6,357.7,162.2,358.1,161.6z"/>
<path class="st9" d="M384.2,79c0.1,0.2-0.1,0.5-0.6,0.9C383.6,79.7,383.8,79.4,384.2,79z"/>
<path class="st9" d="M376.1,99c0.2,0.3,0,0.6-0.5,1.2C375.5,100,375.6,99.6,376.1,99z"/>
<path class="st9" d="M375.1,100.6c0.2,0.3,0,0.7-0.4,1.3C374.5,101.6,374.7,101.2,375.1,100.6z"/>
<path class="st11" d="M321.2,199c0.1,0.2-0.1,0.5-0.5,0.9C320.6,199.7,320.7,199.4,321.2,199z"/>
<path class="st10" d="M293.2,218c0.1,0.2-0.1,0.5-0.5,0.9C292.6,218.7,292.7,218.4,293.2,218z"/>
<path class="st10" d="M294.1,217c0.1,0.3-0.1,0.6-0.5,1C293.5,217.7,293.7,217.3,294.1,217z"/>
<path class="st10" d="M295.1,215.6c0.1,0.2,0,0.7-0.4,1.2C294.6,216.6,294.7,216.2,295.1,215.6z"/>
<path class="st12" d="M298.2,213c0.1,0.2-0.2,0.5-0.7,0.9C297.4,213.7,297.6,213.4,298.2,213z"/>
<path class="st12" d="M302.1,210c0.1,0.2-0.1,0.5-0.5,0.9C301.5,210.7,301.7,210.4,302.1,210z"/>
<path class="st12" d="M299.2,212c0.1,0.2-0.1,0.5-0.5,0.9C298.6,212.7,298.7,212.4,299.2,212z"/>
<path class="st11" d="M402.8,174.4c13.9-4.5,26.7,1.2,39.9,2.6c2.4,0.3,2.9,0.8,1.5,3c-4.3,7-9.5,13.3-15.8,18.4
	c-9.4,7.6-19.2,7.8-29.2,0.7c-8-5.7-14.7-12.9-20.3-21.6C386.9,176.5,394.7,175.5,402.8,174.4z"/>
<path class="st13" d="M335.8,205.3c3.8-1.7,7.3-3.3,10.8-4.8c1-0.4,2.7-1.1,2.3,1c-1.5,8.5,1.1,17.3-2.4,25.7
	c-1.1,2.7-2.2,4.3-5.2,3.9c-3.2-0.5-3.9,1.1-3.9,4c0.2,6.3,0,12.7,0.1,19c0,2.3-0.4,4.3-1.8,6.1c-0.8,1-1.6,2.6-3,2.4
	c-1.9-0.2-1.9-2.3-2-3.6c-1.6-12.9-8.6-23.3-16.1-33.3c-2.2-3-2.6-4.2,0.8-6.4C322.2,214.9,327.8,208.6,335.8,205.3z"/>
<path class="st14" d="M489.5,258.3c-0.1-7.9-0.2-15.4,0-22.9c0.1-3.1-0.7-4.9-4.1-4.3c-4.1,0.7-5.4-1.5-6.4-5
	c-1.4-4.9-1.7-9.8-1.5-14.8c0.1-3.6,0.2-7.2-0.7-11.6c10.6,3.8,20.1,8.2,28.2,15.3c0.6,0.5,1.3,1.1,1.8,1.7c2,2.2,6.2,2.6,6.5,5.6
	c0.3,2.9-3.3,4.7-4.9,7.2c-5.8,9.5-12.4,18.6-13.1,30.3c-0.1,1.1-0.5,2.7-1.7,2.7C491.2,262.5,490.3,260.5,489.5,258.3z"/>
<path class="st15" d="M379.2,252.8c3.2-1.1,3.1,1.1,3.3,2.9c0.8,6.2,1.5,12.4,2.4,19.5c5.6-7.1,8.4-15.6,16.1-20.1
	c-1.1,4.2-3.8,7.5-6.1,11c-2.7,4-5.7,7.8-7.5,12.3c-1.3,3.2-0.7,4.6,3,4.6c5.3,0,10.6,0.1,16,0.2c1.2,0,3.1-0.6,3.1,1.4
	c0,1.8-1.9,1.5-3.1,1.5c-5.2,0-10.3,0.2-15.5,0c-3.6-0.2-5.4,0.5-4.4,4.6c0.2,1,0.9,3-1.1,3.3c-1.9,0.3-1.7-1.6-2-2.8
	c-1.8-7.1-1.6-14.5-2.6-21.7C380.1,263.9,379.6,258.5,379.2,252.8z"/>
<path class="st16" d="M438.6,258.1c1-3.4,2-6.4,2.9-9.4c0.3-1.1,0.3-2.7,1.8-2.5c1.9,0.3,1.4,2.1,1,3.3c-1.8,6.4-3.6,12.8-5.7,19.1
	c-2.5,7.6-5.2,15.1-7.8,22.6c-0.5,1.3-0.4,3.7-2.2,3.2c-2.1-0.5-1.2-2.9-0.9-4.3c0.7-2.9,1.7-5.7,2.7-8.5c1.3-3.5,0.7-6.3-2.1-8.9
	c-4.2-4-8-8.4-10.8-13.6c-0.7-1.2-2.2-3-0.7-4c1.8-1.2,2.4,1.2,3.2,2.2c3.4,4.3,6.7,8.7,10.6,12.6c2,2,3.2,1.8,4.1-1
	C435.8,265.3,437.2,261.9,438.6,258.1z"/>
<path class="st17" d="M405.2,236.3c25.4-0.2,50.5-0.2,75.6-0.4c2.8,0,3.7,0.8,3.6,3.7c-0.2,6.8-0.1,13.6-0.5,20.9
	c-0.5-5.7-1.1-11.8-0.7-18c0.3-4.6-1.5-5.4-5.6-5.4c-23.7,0.1-47.5-0.2-71.7-0.3C405.3,236.7,405.1,236.6,405.2,236.3z"/>
<path class="st12" d="M369.7,236.7c-5.8,0.2-11.5,0.2-17.1,0.2c0-0.3,0-0.6,0-0.9c5.3,0,10.6,0,16.4,0
	C369.6,236.2,369.8,236.3,369.7,236.7z"/>
<path class="st18" d="M370,236.9c-0.5,0-0.5-0.4-0.5-0.7c5.7-0.2,11.4-0.3,17.6,0.1C381.8,236.9,376.1,236.9,370,236.9z"/>
<path class="st19" d="M388,236.9c-0.5,0-0.5-0.4-0.5-0.6c5.7-0.2,11.4-0.3,17.5-0.3c0.5,0.1,0.4,0.4,0.5,0.6
	C399.8,236.9,394.1,236.9,388,236.9z"/>
<path class="st15" d="M483.5,261.5c0.1-0.5,0.4-0.5,0.6-0.5c0.2,5.8,0.2,11.6,0.2,17.3c-0.3,0-0.5,0-0.8,0
	C483.5,272.9,483.5,267.4,483.5,261.5z"/>
<path class="st11" d="M282.5,254.5c0.1-0.7,0.2-1.2,0.3-1.6c1,0.5,0.5,1.3,0.4,2c0,0.1-0.2,0.3-0.3,0.3
	C282.8,255.1,282.7,254.9,282.5,254.5z"/>
<path class="st11" d="M283.5,248.3c0.2-0.3,0.4-0.2,0.8-0.1c0.1,0.8,0.4,1.7-0.5,2.2C283.7,249.7,283.6,249.1,283.5,248.3z"/>
<path class="st5" d="M541.4,248.4c1.2,0.3,1.1,1.2,0.3,2.4C541.4,250.2,541.4,249.5,541.4,248.4z"/>
<path class="st20" d="M440.8,104.5c0.2,1.1,0.7,2.2,0.3,2.7c-0.9,1.2-1.7,0-2.3-0.6c-3.4-3.1-6.5-6.7-10.3-9.4
	c-12.1-8.8-21.9-8.2-33.3,1.6c-3.3,2.9-6.9,5.6-9.5,9.1c-1.8-1.1-1.2-2.3-0.9-3.3c4.6-17.6,20.3-26.3,37.7-21.1
	C432.8,86.7,437.9,94.4,440.8,104.5z"/>
<path class="st21" d="M422.2,102.3c2.8,3,5.4,5.7,7.1,10c-11.1-1.9-21.7-1.6-33.3-0.1c4.3-6.5,8.5-11.5,14.2-15.1
	c2.9-1.8,5-0.6,7.2,1.1C418.9,99.5,420.4,100.8,422.2,102.3z"/>
<path class="st22" d="M433.4,81.7c-6-0.9-11.5-3.7-17.8-3.8c-7.8-0.2-15.1,1.3-22.8,4.2c3.7-7.4,17.6-13,25.3-10.2
	C423.8,73.9,429.7,75.9,433.4,81.7z"/>
<path class="st4" d="M457.4,145c0.1,0.1,0.3,0.3,0.4,0.4c-0.1,0-0.2-0.1-0.4-0.3C457.4,145,457.4,145,457.4,145z"/>
<path class="st4" d="M368.4,145c-0.1-0.1-0.1,0.9-0.2,0C368.4,145,368.4,145,368.4,145z"/>
<path class="st22" d="M392.5,82.1c-0.1,0.2-0.3,0.4-0.4,0.6c0-0.2,0-0.4,0.1-0.7C392.3,81.9,392.5,82,392.5,82.1z"/>
<path class="st22" d="M433.5,82c0.2,0.2,0.3,0.4,0.4,0.6c-0.1,0-0.3-0.1-0.5-0.3C433.4,82.1,433.4,82,433.5,82z"/>
<path class="st20" d="M384,109.5C383.9,109.5,384,109.5,384,109.5z"/>
<path class="st20" d="M442,109.5C441.9,109.5,442,109.5,442,109.5z"/>
<path class="st23" d="M425.8,196c-0.8-2.9,1-5.6,0.1-8.7c-0.9-3.2,2.1-1.9,3.5-2.3c0.9-0.2,2.2,0.3,2.4-1c0.2-1.2-0.9-1.5-1.9-1.9
	c-2.1-0.8-4.5-1-6-3.3c4.6,1.3,9.1,1.4,13.7,1.4c1.4,0,1.7,1.1,0.8,2.1C434.5,186.8,432.4,193.3,425.8,196z"/>
<path class="st23" d="M425.5,196c-0.1,0-0.1,0.8-0.2,0C425.4,196,425.4,196,425.5,196z"/>
</svg>
